<?xml version="1.0" ?><!DOCTYPE svg  PUBLIC '-//W3C//DTD SVG 1.1//EN'  'http://www.w3.org/Graphics/SVG/1.1/DTD/svg11.dtd'><svg id="Layer_1" style="enable-background:new 0 0 74 74;" version="1.1" viewBox="0 0 74 74" xml:space="preserve" xmlns="http://www.w3.org/2000/svg" xmlns:xlink="http://www.w3.org/1999/xlink"><style type="text/css">
	.st0{fill:#7688A1;}
	.st1{fill:#FABB8E;}
	.st2{fill:#E69D6A;}
	.st3{fill:#594667;}
	.st4{fill:#E73A36;}
	.st5{fill:#CFE5E4;}
	.st6{fill:#FFFFFF;}
	.st7{fill:#EEF1F6;}
	.st8{fill:#8EDAFA;}
	.st9{fill:#FFF383;}
	.st10{fill:#70B7D6;}
	.st11{fill:#FFAEC3;}
	.st12{fill:#FF9DB2;}
	.st13{fill:#F18DA2;}
	.st14{fill:#FFDF97;}
	.st15{fill:#49375B;}
	.st16{fill:#452E1B;}
	.st17{fill:#FEF6B0;}
	.st18{fill:#FFCCA9;}
	.st19{fill:#FED766;}
	.st20{fill:#8A9DB2;}
	.st21{fill:#5D738C;}
	.st22{fill:#2C3E50;}
	.st23{fill:#EC685E;}
	.st24{fill:#54758C;}
	.st25{fill:#D12828;}
	.st26{fill:#69567C;}
	.st27{fill:#857399;}
	.st28{fill:#705D82;}
	.st29{fill:#EAA678;}
	.st30{fill:#D88D5B;}
	.st31{fill:#3597D3;}
	.st32{fill:#E27491;}
	.st33{fill:#E4F2F1;}
	.st34{fill:#FFE576;}
	.st35{fill:#FFB8CB;}
	.st36{fill:#C91F1F;}
	.st37{fill:#E0E2EE;}
	.st38{fill:#FEFEFE;}
	.st39{fill:#E5E5E5;}
	.st40{fill:#D3D3D3;}
	.st41{fill:#C2C3C4;}
	.st42{fill:none;}
	.st43{fill:#FFFBD7;}
	.st44{fill:#CCCCCC;}
	.st45{fill:#FFF5B0;}
	.st46{fill:#EDEFF4;}
	.st47{fill:#F0F2F7;}
	.st48{fill:#D3EBF7;}
</style><g><g><rect class="st5" height="25.8" transform="matrix(-0.7071 0.7071 -0.7071 -0.7071 108.124 -8.382)" width="22.8" x="44.4" y="5.3"/></g><g><path class="st3" d="M36.3,14.8C22.4,28.7,14.9,36.2,1,50.1C4.7,60.8,13.2,69.3,23.9,73c13.9-13.9,21.4-21.4,35.3-35.3L36.3,14.8z    "/></g><g><g><rect class="st3" height="4.6" transform="matrix(0.7071 0.7071 -0.7071 0.7071 24.6291 -32.6884)" width="4.6" x="49.5" y="11.1"/></g><g><rect class="st3" height="4.6" transform="matrix(0.7071 0.7071 -0.7071 0.7071 33.4707 -36.3507)" width="4.6" x="58.3" y="19.9"/></g></g><g><g><circle class="st31" cx="18.6" cy="55.4" r="3.2"/></g><g><line class="st4" x1="20.9" x2="37.5" y1="53.1" y2="36.5"/><path class="st6" d="M20.4,53.6c-0.3-0.3-0.3-0.7,0-1L37,36c0.3-0.3,0.7-0.3,1,0c0.3,0.3,0.3,0.7,0,1L21.4,53.6     C21.1,53.9,20.6,53.9,20.4,53.6z"/></g><g><polygon class="st6" points="39.7,38.7 41.2,32.8 35.3,34.3    "/></g><g><g><path class="st6" d="M25.9,48.1c-0.3-0.3-0.3-0.7,0-1c0.3-0.3,0.7-0.3,1,0c2.6,2.6,6.9,2.6,9.6,0l2.7-2.7c0.3-0.3,0.7-0.3,1,0      c0.3,0.3,0.3,0.7,0,1l-2.7,2.7C34.2,51.3,29.1,51.3,25.9,48.1z"/></g><g><rect class="st6" height="4.7" transform="matrix(0.7071 0.7071 -0.7071 0.7071 43.3589 -14.8897)" width="4.7" x="37.3" y="42.6"/></g></g><g><g><path class="st6" d="M22.6,51.4c-3.2-3.2-3.2-8.4,0-11.5l3.3-3.3c0.3-0.3,0.7-0.3,1,0c0.3,0.3,0.3,0.7,0,1l-3.3,3.3      c-2.6,2.6-2.6,6.9,0,9.6c0.3,0.3,0.3,0.7,0,1C23.3,51.7,22.8,51.7,22.6,51.4z"/></g><g><circle class="st6" cx="26.4" cy="37.1" r="2.3"/></g><g><circle class="st6" cx="18.7" cy="55.5" r="3.2"/></g></g></g></g></svg>